<svg viewBox="0 0 160 160" width="160" height="160" xmlns="http://www.w3.org/2000/svg" xml:space="preserve" style="fill-rule:evenodd;clip-rule:evenodd;stroke-linejoin:round;stroke-miterlimit:2"><path d="M18 13v-2h4v2h-4Zm1.2 7L16 17.6l1.2-1.6 3.2 2.4-1.2 1.6Zm-2-12L16 6.4 19.2 4l1.2 1.6L17.2 8ZM5 19v-4H4c-.55 0-1.021-.196-1.412-.587A1.927 1.927 0 0 1 2 13v-2c0-.55.196-1.021.588-1.413A1.926 1.926 0 0 1 4 9h4l5-3v12l-5-3H7v4H5Zm9-3.65v-6.7c.45.4.813.888 1.088 1.462.275.576.412 1.205.412 1.888 0 .683-.137 1.313-.412 1.887A4.56 4.56 0 0 1 14 15.35Z" style="fill-rule:nonzero" transform="matrix(7.5 0 0 7.5 -10 -10)"/></svg>